<svg xmlns="http://www.w3.org/2000/svg" width="159.99" height="71.727" viewBox="0 0 159.99 71.727">
  <g id="Group_11154" data-name="Group 11154" transform="translate(0 2.5)">
    <g id="Group_3402" data-name="Group 3402" transform="translate(0 0)">
      <path id="Path_14" data-name="Path 14" d="M250.348,158.482h9.113a1.328,1.328,0,0,1,1.3,1.6,30.839,30.839,0,0,1-13.041,19.21s-15.227,9.137-29.642,1.966c-.03-.015-.059-.028-.09-.04-1.077-.417-21.6-9.141-17.439-35.778,0,0,3.885-21.643,29.135-23.586,0,0,12.209-1.387,23.308,9.712,0,0,5.8,6.041,7.7,13.613a1.33,1.33,0,0,1-1.293,1.648h-9.1a1.326,1.326,0,0,1-1.228-.821c-1.064-2.59-4.974-10.507-13.486-11.931a1.163,1.163,0,0,1-.141-.032,19.137,19.137,0,0,0-18,4.5,20.53,20.53,0,0,0-5.829,20.7c1.7,5.827,6.278,12,17.793,13.388,0,0,14.421,1.869,19.684-13.256A1.33,1.33,0,0,1,250.348,158.482Z" transform="translate(-199.995 -114.78)" fill="#00fff8"/>
      <path id="Path_16" data-name="Path 16" d="M0,0H11.515" transform="translate(21.089 36.766)" fill="none" stroke="#ff7272" stroke-linecap="round" stroke-width="5"/>
      <path id="Path_17" data-name="Path 17" d="M0,0V36.627" transform="translate(32.604)" fill="none" stroke="#ff7272" stroke-linecap="round" stroke-width="5"/>
      <path id="Path_15" data-name="Path 15" d="M261.523,174a16.548,16.548,0,0,0-13.6,15.261s-1.387,16.094,15.261,18.868c0,0,8.047.832,13.041-4.162" transform="translate(-234.607 -152.496)" fill="none" stroke="#00fff8" stroke-linecap="round" stroke-width="1"/>
    </g>
    <text id="CRONJ" transform="translate(63.99 41.528)" font-size="26" font-family="NasalizationRg-Regular, Nasalization"><tspan x="0" y="0">CRONJ</tspan></text>
  </g>
</svg>
